<svg width="47" height="47" viewBox="0 0 47 47" fill="none" xmlns="http://www.w3.org/2000/svg">
<path d="M46.5234 23.9961C46.5234 36.6986 36.226 46.9961 23.5234 46.9961C10.8209 46.9961 0.523438 36.6986 0.523438 23.9961C0.523438 11.2935 10.8209 0.996094 23.5234 0.996094C36.226 0.996094 46.5234 11.2935 46.5234 23.9961Z" fill="#FF0000"/>
<path d="M14.0463 23.8093C14.0463 25.9519 12.3094 27.6889 10.1667 27.6889C8.02407 27.6889 6.28711 25.9519 6.28711 23.8093C6.28711 21.6666 8.02407 19.9297 10.1667 19.9297C12.3094 19.9297 14.0463 21.6666 14.0463 23.8093Z" fill="white"/>
<path fill-rule="evenodd" clip-rule="evenodd" d="M28.862 26.0475C30.0982 26.0475 31.1003 25.0454 31.1003 23.8093C31.1003 22.5732 30.0982 21.5711 28.862 21.5711C27.6259 21.5711 26.6238 22.5732 26.6238 23.8093C26.6238 25.0454 27.6259 26.0475 28.862 26.0475ZM28.862 27.6889C31.0047 27.6889 32.7416 25.9519 32.7416 23.8093C32.7416 21.6666 31.0047 19.9297 28.862 19.9297C26.7194 19.9297 24.9824 21.6666 24.9824 23.8093C24.9824 25.9519 26.7194 27.6889 28.862 27.6889Z" fill="white"/>
<path fill-rule="evenodd" clip-rule="evenodd" d="M36.8796 26.0475C38.1158 26.0475 39.1178 25.0454 39.1178 23.8093C39.1178 22.5732 38.1158 21.5711 36.8796 21.5711C35.6435 21.5711 34.6414 22.5732 34.6414 23.8093C34.6414 25.0454 35.6435 26.0475 36.8796 26.0475ZM36.8796 27.6889C39.0223 27.6889 40.7592 25.9519 40.7592 23.8093C40.7592 21.6666 39.0223 19.9297 36.8796 19.9297C34.737 19.9297 33 21.6666 33 23.8093C33 25.9519 34.737 27.6889 36.8796 27.6889Z" fill="white"/>
<path d="M10.0352 23.6562H14.0453V27.6851H10.0352V23.6562Z" fill="white"/>
<path d="M12.4062 23.8085C12.4062 25.0447 11.4041 26.0468 10.1679 26.0468C8.93178 26.0468 7.92969 25.0447 7.92969 23.8085C7.92969 22.5724 8.93178 21.5703 10.1679 21.5703C11.4041 21.5703 12.4062 22.5724 12.4062 23.8085Z" fill="#FF0000"/>
<path d="M10.0938 23.7227H12.4073V26.047H10.0938V23.7227Z" fill="#FF0000"/>
<path d="M22.8145 19.9297H24.4558V27.5397H22.8145V19.9297Z" fill="white"/>
<path d="M22.252 21.5703L22.252 19.9289L24.4578 19.9289L24.4578 21.5703L22.252 21.5703Z" fill="white"/>
<path d="M13.8984 19.9297H21.6577L19.8743 26.1118C19.6049 27.0458 18.7501 27.6889 17.778 27.6889C16.806 27.6889 15.9512 27.0458 15.6818 26.1118L13.8984 19.9297Z" fill="white"/>
<path d="M15.5586 19.8164H20.0537L18.2161 25.6876C18.1493 25.9009 17.9517 26.0462 17.7281 26.0462C17.5 26.0462 17.2994 25.895 17.2366 25.6756L15.5586 19.8164Z" fill="#FF0000"/>
</svg>
